<svg xmlns="http://www.w3.org/2000/svg" width="160" height="32" viewBox="0 0 160 32">
    <defs>
        <linearGradient id="a" x1="0%" y1="50.003%" y2="50.003%">
            <stop offset="0%" stop-color="#FFF"/>
            <stop offset="100%" stop-color="#FFF" stop-opacity="0"/>
        </linearGradient>
    </defs>
    <g fill="none" fill-rule="evenodd">
        <path fill="#FFF" d="M15.028 0l15.123 3.013v24.104L15.028 30.13z"/>
        <path fill="url(#a)" d="M0 0l15.122 3.013v24.104L0 30.13z"/>
        <path fill="#FFF" fill-rule="nonzero" d="M46.284 14.577l10.476-9.43c.375-.373.26-.717-.29-.717h-3.028a1 1 0 0 0-.72.287l-9.35 8.546h-.547l-.058-8.25a.516.516 0 0 0-.578-.575h-2.25a.518.518 0 0 0-.577.575l-.086 19.9a.514.514 0 0 0 .576.574h2.482a.518.518 0 0 0 .577-.575l-.058-8.509h.519l9.262 8.797a.901.901 0 0 0 .695.287h3.287c.521 0 .637-.344.262-.718L46.284 14.577zM64.898 9.58c-4.39 0-7.675 3.39-7.675 8.25 0 4.743 3.174 8.108 7.415 8.108 4.358 0 7.677-3.536 7.677-8.366 0-4.772-3.174-7.992-7.417-7.992zm-.375 2.962c2.454 0 4.389 2.039 4.389 5.404 0 3.047-1.644 4.969-3.924 4.969-2.424 0-4.39-2.1-4.39-5.404 0-3.101 1.646-4.97 3.925-4.97zM83.172 9.58c-1.817 0-3.607.795-4.674 2.53l-.23.028-.03-1.524a.514.514 0 0 0-.576-.575h-2.165a.518.518 0 0 0-.576.575l-.108 20.613a.514.514 0 0 0 .577.574h2.394a.518.518 0 0 0 .576-.574l-.03-6.698h.146c1.125.978 2.278 1.409 4.04 1.409 4.068 0 7.04-3.393 7.04-8.338-.006-4.63-2.603-8.02-6.384-8.02zM82.25 22.95c-2.366 0-4.27-1.61-4.19-5.09 0-3.364 1.848-5.317 4.156-5.317 2.309 0 3.929 1.896 3.929 5.316 0 3.192-1.327 5.09-3.895 5.09zM105.764 25.477a.518.518 0 0 0 .57-.565l-.114-14.288a.516.516 0 0 0-.578-.575h-2.993a.727.727 0 0 0-.692.398l-6.406 10.55-.086-10.38a.516.516 0 0 0-.578-.574h-2.021a.52.52 0 0 0-.579.575l-.117 14.294a.514.514 0 0 0 .576.575h3.088c.283.015.551-.13.693-.374l6.495-10.675-.08 10.474a.514.514 0 0 0 .577.575l2.245-.01zM123.727 22.402l-.086-11.788a.516.516 0 0 0-.579-.575h-9.376a.532.532 0 0 0-.599.547l-1.067 8.97c-.116 1.264-.49 2.186-1.24 2.846h-1.597c-.399 0-.598.199-.577.596l.433 7.102a.534.534 0 0 0 .577.546h1.472a.518.518 0 0 0 .577-.574l.086-4.601h11.457l.084 4.609a.514.514 0 0 0 .576.574h1.5a.54.54 0 0 0 .58-.546l.398-7.102c.03-.397-.173-.596-.576-.596l-2.043-.008zm-3.492 0h-5.829c.375-.835.598-1.926.75-3.278l.635-6.008h4.508l-.064 9.286zM135.35 9.58c-4.39 0-7.677 3.39-7.677 8.25 0 4.743 3.176 8.108 7.417 8.108 4.357 0 7.675-3.536 7.675-8.366 0-4.772-3.174-7.992-7.415-7.992zm-.375 2.962c2.451 0 4.389 2.039 4.389 5.404 0 3.047-1.644 4.969-3.925 4.969-2.424 0-4.389-2.1-4.389-5.404 0-3.101 1.644-4.97 3.925-4.97zM153.616 9.58c-1.817 0-3.607.795-4.674 2.53l-.232.028-.028-1.524a.516.516 0 0 0-.578-.575h-2.157a.518.518 0 0 0-.576.575l-.116 20.613a.516.516 0 0 0 .578.574h2.394a.518.518 0 0 0 .577-.574l-.028-6.698h.144c1.125.978 2.28 1.409 4.04 1.409 4.07 0 7.04-3.393 7.04-8.338 0-4.63-2.594-8.02-6.384-8.02zm-.924 13.369c-2.366 0-4.271-1.61-4.19-5.09 0-3.364 1.846-5.317 4.156-5.317 2.279 0 3.925 1.896 3.925 5.316.014 3.192-1.315 5.09-3.883 5.09h-.008z"/>
    </g>
</svg>
