<svg xmlns="http://www.w3.org/2000/svg" width="33" height="20" viewBox="0 0 33 20">
    <g fill="#FFF" fill-rule="nonzero">
        <path d="M22.853.477c-2.52.001-4.816.946-6.547 2.499A9.782 9.782 0 0 0 9.762.479h-.063C4.34.514 0 4.83 0 10.143c0 5.334 4.374 9.662 9.761 9.662a9.772 9.772 0 0 0 6.544-2.496 9.597 9.597 0 0 1-.998-1.056h2.015a9.704 9.704 0 0 1-.991 1.035h-.001c-.008.009-.017.014-.025.021a9.78 9.78 0 0 0 6.551 2.5c5.391-.002 9.76-4.33 9.759-9.666v-.005c0-5.336-4.371-9.662-9.762-9.66zm-7.435 3.497h1.856c.273.328.527.673.757 1.035h-3.31c.214-.346.448-.701.697-1.035zm-1.273 2.05h4.45c.158.334.298.68.42 1.035h-5.397c.053-.1.242-.503.527-1.036zm-10.16 6.58l.592-3.695-1.336 3.695h-.715l-.093-3.695-.633 3.695H.797l.831-4.9h1.517l.053 3.007 1.025-3.007h1.645l-.82 4.9H3.985zm3.546-.008l.034-.391c-.016.002-.333.472-1.066.472-.384 0-1.003-.207-1.003-1.108 0-1.146.944-1.526 1.843-1.526.141 0 .446.025.446.025s.035-.07.035-.26c0-.31-.283-.353-.67-.353-.683 0-1.133.18-1.133.18l.15-.886s.547-.227 1.26-.227c.368 0 1.427.039 1.427 1.24l-.408 2.834h-.915zm3.867-1.248c0 1.367-1.338 1.309-1.571 1.309-.873 0-1.142-.12-1.167-.126l.139-.9c.001-.008.438.156.923.156.28 0 .644-.027.644-.358 0-.496-1.301-.378-1.301-1.556 0-1.039.78-1.343 1.549-1.343.594 0 .959.08.959.08l-.131.909s-.564-.046-.71-.046c-.37 0-.571.08-.571.336-.001.514 1.237.262 1.237 1.539zm1.607.359c.093 0 .197-.032.268-.032l-.13.874c-.104.029-.4.133-.779.136-.484.004-.828-.264-.828-.872 0-.408.59-3.77.613-3.792h1.04l-.106.601h.518l-.132.969h-.55l-.293 1.784c-.022.142.018.332.38.332zm2.286-3.198c1.141 0 1.482.826 1.482 1.504 0 .272-.137.938-.137.938h-2.112s-.195.824.92.824c.524 0 1.104-.254 1.104-.254l-.183.992s-.335.169-1.097.169c-.827 0-1.796-.346-1.796-1.8 0-1.259.774-2.373 1.82-2.373zm2.753 6.748H14.58a9.527 9.527 0 0 1-.577-1.034h4.609c-.17.357-.36.702-.57 1.034zm-.233-2.646h-1.067l.649-3.988h.968l-.093.578s.345-.628.81-.628c.135 0 .2.013.2.013-.137.279-.26.534-.386 1.193-.722-.253-.777 1.129-1.08 2.832zm4.065-.062s-.56.142-.91.142c-1.24 0-1.87-.848-1.87-2.131 0-1.935 1.167-2.966 2.367-2.966.542 0 1.17.252 1.17.252l-.17 1.09s-.424-.294-.953-.294c-.707 0-1.342.668-1.342 1.882 0 .598.296 1.155 1.034 1.155.351 0 .86-.252.86-.252l-.186 1.122zm2.502.049l.035-.394c-.017.002-.334.473-1.067.473-.383 0-1.003-.208-1.003-1.109 0-1.146.944-1.526 1.843-1.526.141 0 .447.025.447.025s.035-.069.035-.258c0-.312-.283-.354-.67-.354-.683 0-1.133.18-1.133.18l.15-.886s.548-.227 1.26-.227c.368 0 1.428.039 1.427 1.24l-.408 2.834c0 .002-.916.002-.916.002zm2.16.013H25.47l.648-3.988h.969l-.093.578s.345-.628.81-.628c.136 0 .2.013.2.013-.137.279-.26.534-.386 1.193-.723-.253-.778 1.129-1.082 2.832zm3.184-.01l.045-.368s-.344.431-.968.431c-.864 0-1.288-.826-1.288-1.67 0-1.305.794-2.443 1.746-2.443.613.001 1.004.536 1.004.536l.225-1.376 1.042-.002-.795 4.892h-1.01zm2.056-.138a.31.31 0 0 1-.274.158.31.31 0 0 1-.272-.158.307.307 0 0 1 0-.311.322.322 0 0 1 .272-.157c.054 0 .105.014.155.041a.305.305 0 0 1 .119.427zM31.694 15.411c-.007-.004-.013-.012-.023-.016a.166.166 0 0 0-.054-.006h-.064v.1h.068c.031 0 .052-.002.064-.014a.044.044 0 0 0 .017-.036.05.05 0 0 0-.008-.028z"/>
        <path d="M31.912 15.351a.288.288 0 0 0-.12-.116.32.32 0 0 0-.154-.041.317.317 0 0 0-.155.041.29.29 0 0 0-.118.116.312.312 0 0 0 .117.426.323.323 0 0 0 .313 0 .3.3 0 0 0 .117-.116.303.303 0 0 0 0-.31zm-.194.328l-.03-.052a.28.28 0 0 0-.058-.08.075.075 0 0 0-.043-.012h-.032v.144H31.5v-.337h.117c.04 0 .07.003.086.01a.076.076 0 0 1 .043.033c.01.015.015.032.015.049 0 .025-.009.045-.026.065a.11.11 0 0 1-.07.03c.012.004.021.011.028.018.015.014.03.036.051.066l.042.066h-.068zM7.423 10.807c-.762 0-.916.339-.916.621 0 .145.084.388.407.388.625 0 .755-.812.735-.985-.03-.006-.048-.023-.226-.024zM15.295 9.43c-.566 0-.675.637-.675.705h1.153c0-.052.109-.706-.478-.706zM29.437 9.54c-.458 0-.82.526-.819 1.324 0 .487.176.799.55.799.563 0 .834-.728.834-1.27 0-.598-.192-.852-.565-.852zM31.73 12.179a.253.253 0 0 0-.098-.097.259.259 0 0 0-.355.097.267.267 0 0 0-.036.13.27.27 0 0 0 .034.129.274.274 0 0 0 .229.133.267.267 0 0 0 .262-.262.265.265 0 0 0-.035-.13zm-.146.301l-.03-.052a.27.27 0 0 0-.057-.079.069.069 0 0 0-.044-.012h-.03v.142h-.058v-.336h.118c.04 0 .07.004.087.011a.096.096 0 0 1 .043.032.077.077 0 0 1 .015.05.09.09 0 0 1-.027.063c-.017.02-.042.028-.07.031a.094.094 0 0 1 .03.017.34.34 0 0 1 .049.066l.042.067h-.068zM24.271 10.807c-.762 0-.916.339-.916.621 0 .145.084.388.407.388.626 0 .755-.812.735-.985-.03-.006-.049-.023-.226-.024z"/>
        <path d="M31.561 12.212a.061.061 0 0 0-.022-.017.193.193 0 0 0-.056-.006h-.06v.102h.066c.031 0 .052-.004.065-.014a.052.052 0 0 0 .016-.038.044.044 0 0 0-.009-.027z"/>
    </g>
</svg>
