<svg xmlns="http://www.w3.org/2000/svg" width="64" height="18" viewBox="0 0 64 18">
    <g fill="#FFF" fill-rule="nonzero">
        <path d="M58.752 10.198l1.499-1.354 1.36 1.504-1.5 1.355zM55.264 11.868l1.999-1.8 1.807 2.01-1.998 1.798zM61.957 9.264l.998-.9.904 1.003-.998.9zM56.086 3.99l1.5-1.35 1.356 1.506-1.5 1.35zM60.68 6.267l.997-.9.905 1.002-.997.9zM6.698 5.45l-.979 5.098h-.068L4.317 5.45h-.853l-1.247 5.098h-.068L1.075 5.45H0l1.554 6.832H2.59l1.266-4.81h.067l1.305 4.81h1.037L7.82 5.45zM53.844 8.39l2.001-1.802 1.808 2.009-2.001 1.8zM52.416 4.966l2-1.8 1.807 2.009-2 1.8zM57.468 7.02l1.497-1.351 1.359 1.506-1.497 1.351zM59.396 3.288l.998-.9.904 1.003-.998.9zM43.974 7.511l-1.089 3.55h-.057L41.6 7.512h-1.055l1.84 4.82c-.23.714-.631 1.234-1.284 1.234v.788c1.102 0 1.687-.693 2.167-2.024l1.734-4.819h-1.028zM12.214 9.703c.001-1.575-.738-2.353-1.937-2.353C8.838 7.35 8.1 8.41 8.1 9.874c0 1.524.663 2.525 2.273 2.525.69 0 1.266-.192 1.697-.446v-.729c-.527.315-1.007.5-1.524.5-.987 0-1.458-.509-1.458-1.667h3.126v-.354zM9.107 9.41c.105-.962.557-1.415 1.142-1.415.518 0 1.007.402 1.055 1.415H9.107zM60.072 13.24l1.5-1.352 1.359 1.507-1.5 1.352zM40.242 9.703c.002-1.575-.737-2.353-1.935-2.353-1.44 0-2.178 1.059-2.178 2.524 0 1.524.662 2.525 2.272 2.525.69 0 1.264-.192 1.696-.446v-.729c-.526.315-1.006.5-1.523.5-.987 0-1.46-.509-1.46-1.667h3.128v-.354zm-3.108-.293c.108-.962.56-1.415 1.144-1.415.516 0 1.008.402 1.055 1.415h-2.199z"/>
        <path d="M58.944 13.593l-1.955 1.81-3.3-3.689.918-.811-2.31-2.599.923-.812-2.345-2.596 3.66-3.31 1.162 1.279 1.962-1.76 1.16 1.208.773-.696a7.265 7.265 0 0 0-.521-.276 8.34 8.34 0 0 0-3.685-.856c-4.63 0-8.407 3.793-8.407 8.444 0 4.65 3.777 8.444 8.407 8.444 1.504 0 2.92-.4 4.143-1.101.403-.229.77-.477 1.106-.738l-1.691-1.941zM15.38 7.35c-.518 0-1.007.202-1.296.357V4.96l-.997.24v6.726a4.448 4.448 0 0 0 1.871.472c1.391 0 2.254-.878 2.254-2.68 0-1.54-.642-2.368-1.832-2.368zm-.422 4.373c-.24 0-.575-.018-.882-.153V8.42c.384-.212.663-.318 1.045-.318.642 0 1.085.396 1.085 1.618 0 1.56-.538 2.004-1.248 2.004zM33.655 7.348c-1.103 0-2.015.452-2.446.712v4.22h.996V8.465c.297-.173.787-.347 1.17-.347.493 0 .865.135.865.896v3.267h.997V8.794c0-.991-.433-1.444-1.582-1.446zM23.679 5.45l-2.05 5.386h-.05L19.43 5.45h-1.16v6.832h.863V7.444h.086l1.957 4.838h.613l1.958-4.955h.085v4.955h1.036V5.45zM28.11 7.35c-1.266 0-2.187.839-2.187 2.524 0 1.647.874 2.525 2.187 2.525 1.315 0 2.188-.878 2.188-2.525 0-1.687-.922-2.524-2.188-2.524zm0 4.373c-.68 0-1.18-.527-1.18-1.849 0-1.3.548-1.85 1.18-1.85.653 0 1.18.55 1.18 1.85 0 1.32-.499 1.85-1.18 1.85z"/>
    </g>
</svg>
