<?xml version="1.0" encoding="UTF-8"?>
<svg width="20px" height="16px" viewBox="0 0 20 16" version="1.1" xmlns="http://www.w3.org/2000/svg" xmlns:xlink="http://www.w3.org/1999/xlink">
    <!-- Generator: Sketch 50 (54983) - http://www.bohemiancoding.com/sketch -->
    <title>credit-card</title>
    <desc>Created with Sketch.</desc>
    <defs></defs>
    <g id="desktop-1366" stroke="none" stroke-width="1" fill="none" fill-rule="evenodd">
        <g id="00-style-guide" transform="translate(-793.000000, -3179.000000)" fill="#0C128F" fill-rule="nonzero">
            <g id="05-user-menu" transform="translate(103.000000, 2908.000000)">
                <g id="menu" transform="translate(650.000000, 101.000000)">
                    <g id="credit-card" transform="translate(40.000000, 170.000000)">
                        <path d="M18,0 L2,0 C0.9,0 0,0.9 0,2 L0,14 C0,15.1 0.9,16 2,16 L18,16 C19.1,16 20,15.1 20,14 L20,2 C20,0.9 19.1,0 18,0 Z M18,14 L2,14 L2,8 L18,8 L18,14 Z M18,4 L2,4 L2,2 L18,2 L18,4 Z"></path>
                    </g>
                </g>
            </g>
        </g>
    </g>
</svg>