<?xml version="1.0" encoding="UTF-8"?>
<svg width="20px" height="20px" viewBox="0 0 20 20" version="1.1" xmlns="http://www.w3.org/2000/svg" xmlns:xlink="http://www.w3.org/1999/xlink">
    <!-- Generator: Sketch 50 (54983) - http://www.bohemiancoding.com/sketch -->
    <title>settings</title>
    <desc>Created with Sketch.</desc>
    <defs></defs>
    <g id="desktop-1366" stroke="none" stroke-width="1" fill="none" fill-rule="evenodd">
        <g id="00-style-guide" transform="translate(-793.000000, -3257.000000)" fill="#0C128F" fill-rule="nonzero">
            <g id="05-user-menu" transform="translate(103.000000, 2908.000000)">
                <g id="menu" transform="translate(650.000000, 101.000000)">
                    <g id="settings" transform="translate(40.000000, 248.000000)">
                        <path d="M17.4471608,11.0433071 C17.4471608,10.742126 17.5489572,10.4409449 17.5489572,10.0393701 C17.5489572,9.63779528 17.5489572,9.33661417 17.4471608,9.03543307 L19.5848853,7.32874016 C19.7884781,7.12795276 19.7884781,6.92716535 19.6866817,6.72637795 L17.6507536,3.21259843 C17.5489572,3.11220472 17.3454043,3.01181102 17.0399751,3.11220472 L14.495065,4.11614173 C13.9860829,3.71456693 13.3753045,3.41338583 12.764526,3.11220472 L12.3573404,0.501968504 C12.4591368,0.200787402 12.1537077,0 11.9501548,0 L7.8782985,0 C7.67466576,0 7.36931646,0.200787402 7.36931646,0.401574803 L6.96213083,3.11220472 C6.35135239,3.31299213 5.84237035,3.71456693 5.23159191,4.11614173 L2.78847814,3.11220472 C2.48308892,3.01181102 2.2794961,3.11220472 2.07586337,3.31299213 L0.0399352238,6.82677165 C-0.0618611834,6.92716535 0.0399352238,7.22834646 0.243528038,7.42913386 L2.38125259,9.03543307 C2.38125259,9.33661417 2.27945618,9.63779528 2.27945618,10.0393701 C2.27945618,10.4409449 2.27945618,10.742126 2.38125259,11.0433071 L0.243528038,12.75 C0.0399352238,12.9508268 0.0399352238,13.1515748 0.141731631,13.3524016 L2.17765977,16.8661811 C2.27945618,16.9665748 2.48300908,17.0669685 2.78843822,16.9665748 L5.3333484,15.9626378 C5.84233043,16.3642126 6.45310888,16.6653937 7.06388732,16.9665748 L7.47107295,19.576811 C7.47107295,19.7775984 7.67466576,19.9783858 7.98005498,19.9783858 L12.0519113,19.9783858 C12.255544,19.9783858 12.5608933,19.7775591 12.5608933,19.576811 L12.9680789,16.9665748 C13.5788574,16.6653937 14.1896358,16.3642126 14.6986179,15.9626378 L17.243528,16.9665748 C17.4471608,17.0669685 17.7525101,16.9665748 17.8543464,16.765748 L19.8902745,13.2519685 C19.992071,13.0511811 19.992071,12.75 19.7884382,12.6496063 L17.4471608,11.0433071 Z M9.91422664,13.5531496 C7.9800949,13.5531496 6.35135239,11.9468504 6.35135239,10.0393701 C6.35135239,8.13188976 7.9800949,6.52559055 9.91422664,6.52559055 C11.8483584,6.52559055 13.4771009,8.13188976 13.4771009,10.0393701 C13.4771009,11.9468504 11.8483584,13.5531496 9.91422664,13.5531496 Z"></path>
                    </g>
                </g>
            </g>
        </g>
    </g>
</svg>